<svg width="245" height="245" viewBox="0 0 245 245" fill="none" xmlns="http://www.w3.org/2000/svg">
<path d="M100.436 211.944L105.072 212.581L106.683 227.52L106.743 227.528L112.265 213.57L116.99 214.22L119.691 236.212L115.025 235.571L113.652 220.665L113.592 220.657L107.922 234.594L103.553 233.994L101.937 218.873L101.877 218.865L96.3899 233.009L91.813 232.38L100.436 211.944Z" fill="#FFDBDB"/>
<path d="M83.5223 229.08L68.8286 222.698L70.4063 219.066L80.7799 223.572L82.6086 219.362L73.0879 215.226L74.5461 211.869L84.0667 216.005L86.1583 211.19L75.5645 206.588L77.1422 202.956L92.0561 209.434L83.5223 229.08Z" fill="#FFDBDB"/>
<path d="M50.9575 210.672L48.4675 208.646L54.5449 201.176L57.0349 203.202L50.9575 210.672Z" fill="#FFDBDB"/>
<path d="M39.2748 185.124L36.2991 180.908C35.6763 180.026 35.0131 179.503 34.3096 179.338C33.606 179.174 32.8131 179.403 31.9307 180.026C31.0811 180.626 30.6241 181.279 30.5597 181.985C30.4789 182.703 30.75 183.503 31.3728 184.386L34.3485 188.601L39.2748 185.124ZM34.0745 194.56L27.4139 185.124C26.8602 184.34 26.495 183.545 26.3182 182.739C26.1134 181.929 26.076 181.148 26.2057 180.395C26.3239 179.626 26.5964 178.92 27.0232 178.276C27.4221 177.627 27.9564 177.066 28.6264 176.593C29.6557 175.867 30.7019 175.459 31.765 175.369C32.8165 175.264 33.8843 175.562 34.9684 176.266L35.0175 176.231C34.8137 175.665 34.7411 175.129 34.7998 174.622C34.8421 174.127 34.9819 173.649 35.2193 173.188C35.4404 172.738 35.7427 172.317 36.1261 171.924C36.4981 171.514 36.8931 171.137 37.3112 170.793C37.5775 170.581 37.8927 170.334 38.257 170.052C38.6213 169.771 38.9879 169.475 39.357 169.166C39.7146 168.84 40.0442 168.509 40.346 168.174C40.62 167.833 40.816 167.487 40.9343 167.134L43.6504 170.982C43.2448 171.587 42.6753 172.185 41.942 172.776C41.2086 173.367 40.5253 173.959 39.8919 174.553C39.0691 175.33 38.5953 176.081 38.4703 176.805C38.3454 177.53 38.6232 178.374 39.3036 179.338L42.0198 183.186L48.8578 178.359L51.574 182.207L34.0745 194.56Z" fill="#FFDBDB"/>
<path d="M17.3791 167.197L12.0143 152.102L15.7457 150.775L19.5332 161.432L23.8581 159.895L20.3821 150.115L23.8308 148.889L27.3068 158.67L32.2537 156.911L28.3858 146.028L32.1172 144.702L37.5623 160.023L17.3791 167.197Z" fill="#FFDBDB"/>
<path d="M30.588 96.259C31.4746 97.3011 32.0294 98.3663 32.2527 99.4545C32.4564 100.539 32.4524 101.59 32.2409 102.608C31.9072 104.214 31.3319 105.606 30.5151 106.784C29.6827 107.939 28.6854 108.855 27.5232 109.533C26.3611 110.211 25.0751 110.648 23.6655 110.846C22.2363 111.039 20.758 110.977 19.2306 110.659C17.6641 110.334 16.2639 109.798 15.03 109.051C13.7765 108.3 12.742 107.381 11.9264 106.292C11.1109 105.203 10.5514 103.964 10.248 102.573C9.94873 101.162 9.96591 99.6543 10.2996 98.0486C10.5234 96.9716 10.9055 95.9683 11.4459 95.0388C11.9708 94.0857 12.63 93.2728 13.4234 92.6002C14.2209 91.908 15.1348 91.3931 16.165 91.0557C17.1952 90.7182 18.3198 90.6148 19.5387 90.7456L18.6231 95.1515C17.3912 95.1814 16.4002 95.527 15.65 96.1882C14.8998 96.8494 14.4087 97.7381 14.1768 98.8543C13.9611 99.8921 13.9836 100.816 14.2442 101.626C14.4853 102.432 14.9017 103.131 15.4935 103.724C16.0657 104.313 16.7602 104.804 17.577 105.199C18.3979 105.574 19.2686 105.857 20.1889 106.048C21.0701 106.231 21.952 106.312 22.8347 106.291C23.7019 106.247 24.5152 106.069 25.2746 105.757C26.0339 105.445 26.6945 104.969 27.2563 104.33C27.7985 103.687 28.1774 102.846 28.3931 101.808C28.7104 100.281 28.5728 99.0268 27.98 98.0457C27.3717 97.0409 26.3475 96.3174 24.9073 95.8751L23.9429 100.516L20.5063 99.8019L22.3374 90.9901L33.6752 93.3461L33.0649 96.2834L30.588 96.259Z" fill="#FFDBDB"/>
<path d="M17.4598 76.6176L24.8301 62.3936L28.3461 64.2155L23.1428 74.2575L27.2182 76.3692L31.9936 67.1529L35.2433 68.8368L30.4678 78.053L35.1292 80.4684L40.443 70.2133L43.959 72.0351L36.4783 86.4722L17.4598 76.6176Z" fill="#FFDBDB"/>
<path d="M40.4195 48.647L36.0375 53.339L33.1434 50.6361L45.1222 37.8099L48.0163 40.5128L43.6343 45.2048L56.3947 57.1222L53.1799 60.5644L40.4195 48.647Z" fill="#FFDBDB"/>
<path d="M63.2235 29.4416L57.7381 32.7774L55.6805 29.3939L70.6756 20.2752L72.7332 23.6587L67.2478 26.9944L76.3197 41.9126L72.2954 44.3598L63.2235 29.4416Z" fill="#FFDBDB"/>
<path d="M89.3008 13.2861L93.8362 12.0153L99.6152 32.641L95.0799 33.9118L89.3008 13.2861Z" fill="#FFDBDB"/>
<path d="M113.138 8.58L117.818 8.58L126.758 22.95H126.818V8.58L131.228 8.58V30H126.518L117.608 15.66H117.548V30H113.138L113.138 8.58Z" fill="#FFDBDB"/>
<path d="M153.584 32.8708C152.484 33.6841 151.383 34.165 150.282 34.3135C149.187 34.4427 148.138 34.3671 147.137 34.0865C145.558 33.644 144.208 32.9751 143.088 32.0797C141.993 31.1705 141.147 30.113 140.55 28.9073C139.953 27.7015 139.605 26.3888 139.504 24.969C139.409 23.5299 139.571 22.0593 139.992 20.5571C140.424 19.0165 141.054 17.6561 141.883 16.476C142.718 15.2767 143.706 14.3074 144.848 13.568C145.99 12.8286 147.265 12.3551 148.673 12.1473C150.101 11.945 151.604 12.065 153.183 12.5075C154.242 12.8043 155.217 13.2539 156.108 13.8565C157.023 14.4453 157.789 15.1584 158.406 15.9959C159.042 16.8388 159.493 17.7856 159.76 18.8365C160.026 19.8873 160.052 21.0163 159.839 22.2234L155.506 21.0093C155.56 19.7783 155.283 18.766 154.674 17.9724C154.066 17.1788 153.212 16.6282 152.115 16.3206C151.094 16.0347 150.171 15.9941 149.345 16.1988C148.524 16.3843 147.798 16.7521 147.167 17.302C146.54 17.8327 146.002 18.492 145.553 19.28C145.123 20.0734 144.781 20.9227 144.528 21.8279C144.285 22.6945 144.144 23.5688 144.104 24.4509C144.089 25.3191 144.212 26.1427 144.471 26.9215C144.731 27.7004 145.16 28.3919 145.759 28.996C146.364 29.5808 147.177 30.0162 148.197 30.3022C149.699 30.7231 150.96 30.6713 151.979 30.1469C153.023 29.6085 153.815 28.6361 154.355 27.2295L149.79 25.9506L150.737 22.5708L159.404 24.999L156.279 36.1496L153.391 35.3402L153.584 32.8708Z" fill="#FFDBDB"/>
<path d="M196.702 36.1521L201.227 40.9976L193.882 54.7131L193.923 54.7569L207.923 48.1671L212.449 53.0125L196.794 67.6328L193.784 64.4098L204.878 54.0487L204.837 54.0048L190.16 60.5291L187.682 57.8761L195.083 43.7805L195.042 43.7366L184.058 53.9954L181.048 50.7724L196.702 36.1521Z" fill="#FFDBDB"/>
<path d="M209.666 73.8238L212.219 78.7516L217.956 72.7382L217.928 72.6849L209.666 73.8238ZM221.54 68.1781L223.762 72.4666L208.428 89.4332L206.179 85.0914L209.669 81.4585L205.984 74.3466L200.975 75.0494L198.795 70.8408L221.54 68.1781Z" fill="#FFDBDB"/>
<path d="M222.424 96.9349L223.474 101.987C223.693 103.044 224.093 103.789 224.673 104.22C225.253 104.651 226.071 104.756 227.129 104.537C228.147 104.325 228.826 103.908 229.167 103.286C229.527 102.659 229.597 101.818 229.377 100.76L228.328 95.7081L222.424 96.9349ZM230.953 90.3519L233.303 101.66C233.498 102.6 233.516 103.475 233.358 104.284C233.223 105.109 232.946 105.84 232.527 106.479C232.112 107.137 231.581 107.677 230.933 108.097C230.308 108.533 229.595 108.835 228.792 109.002C227.558 109.258 226.436 109.215 225.426 108.874C224.419 108.552 223.559 107.852 222.845 106.775L222.786 106.787C222.747 107.388 222.6 107.909 222.344 108.35C222.108 108.787 221.79 109.17 221.388 109.498C221.006 109.823 220.561 110.089 220.053 110.297C219.548 110.524 219.036 110.712 218.515 110.861C218.187 110.95 217.799 111.051 217.353 111.164C216.906 111.277 216.452 111.402 215.99 111.539C215.533 111.696 215.099 111.868 214.688 112.055C214.301 112.258 213.983 112.498 213.735 112.774L212.776 108.163C213.389 107.77 214.15 107.448 215.058 107.198C215.966 106.948 216.829 106.677 217.646 106.385C218.71 106 219.444 105.5 219.847 104.885C220.251 104.27 220.332 103.385 220.092 102.23L219.134 97.6185L210.939 99.3215L209.981 94.71L230.953 90.3519Z" fill="#FFDBDB"/>
<path d="M225.451 125.043L225.098 130.191C225.025 131.268 225.209 132.093 225.651 132.664C226.093 133.236 226.853 133.559 227.93 133.632C228.968 133.703 229.734 133.485 230.23 132.978C230.746 132.472 231.041 131.68 231.114 130.602L231.466 125.455L225.451 125.043ZM235.439 121.005L234.651 132.528C234.586 133.486 234.367 134.333 233.996 135.07C233.644 135.827 233.18 136.457 232.604 136.959C232.027 137.481 231.37 137.857 230.632 138.087C229.914 138.339 229.145 138.436 228.327 138.38C227.07 138.294 226.001 137.951 225.12 137.349C224.238 136.768 223.598 135.862 223.201 134.632L223.141 134.628C222.942 135.195 222.66 135.657 222.295 136.013C221.949 136.371 221.539 136.653 221.064 136.861C220.608 137.071 220.108 137.207 219.562 137.27C219.015 137.353 218.471 137.396 217.93 137.399C217.589 137.395 217.189 137.388 216.729 137.377C216.268 137.365 215.797 137.363 215.316 137.37C214.833 137.397 214.368 137.446 213.922 137.515C213.495 137.606 213.125 137.751 212.81 137.951L213.132 133.251C213.828 133.038 214.647 132.934 215.589 132.938C216.531 132.943 217.435 132.914 218.301 132.853C219.429 132.77 220.27 132.487 220.825 132.004C221.379 131.52 221.696 130.69 221.777 129.513L222.098 124.814L213.748 124.243L214.069 119.544L235.439 121.005Z" fill="#FFDBDB"/>
<path d="M229.178 158.235L227.601 162.673L207.418 155.5L208.995 151.062L229.178 158.235Z" fill="#FFDBDB"/>
<path d="M218.762 181.152L209.524 194.24L206.289 191.956L212.811 182.716L209.061 180.069L203.075 188.549L200.085 186.439L206.071 177.959L201.782 174.931L195.121 184.367L191.886 182.083L201.263 168.799L218.762 181.152Z" fill="#FFDBDB"/>
<path d="M185.223 194.015L181.965 196.666C181.437 197.095 180.995 197.597 180.637 198.171C180.28 198.746 180.065 199.385 179.992 200.088C179.933 200.807 180.045 201.579 180.33 202.405C180.615 203.23 181.129 204.1 181.874 205.016C182.556 205.853 183.253 206.536 183.967 207.065C184.677 207.621 185.414 207.988 186.178 208.166C186.941 208.344 187.734 208.305 188.557 208.048C189.377 207.82 190.236 207.34 191.136 206.608L193.742 204.487L185.223 194.015ZM199.895 204.587L192.728 210.418C191.657 211.289 190.525 211.926 189.332 212.329C188.124 212.745 186.908 212.883 185.686 212.743C184.448 212.616 183.226 212.192 182.021 211.471C180.8 210.763 179.628 209.718 178.504 208.337C177.52 207.127 176.766 205.884 176.244 204.607C175.721 203.331 175.475 202.062 175.505 200.8C175.52 199.55 175.823 198.323 176.416 197.119C177.006 195.943 177.938 194.837 179.21 193.802L186.377 187.971L199.895 204.587Z" fill="#FFDBDB"/>
<path d="M161.872 209.886L157.552 211.762L155.711 207.525L160.031 205.648L161.872 209.886ZM162.088 221.829L159.48 212.888L161.433 212.039L166.16 220.06L168.455 225.343L164.383 227.112L162.088 221.829Z" fill="#FFDBDB"/>
</svg>
